<?xml version="1.0" encoding="utf-8"?>
<!-- Generator: Adobe Illustrator 25.4.1, SVG Export Plug-In . SVG Version: 6.00 Build 0)  -->
<svg version="1.1" id="Layer_1" xmlns="http://www.w3.org/2000/svg" xmlns:xlink="http://www.w3.org/1999/xlink" x="0px" y="0px"
	 viewBox="0 0 595.3 134.1" style="enable-background:new 0 0 595.3 134.1;" xml:space="preserve">
<style type="text/css">
	.st0{fill:#0568A6;}
</style>
<g id="XMLID_406_">
	<path id="XMLID_407_" class="st0" d="M0,78.1h205.6v-5.2c0-9.3,2.9-16.8,8.8-22.6c5.8-5.8,13.4-8.7,22.7-8.7h27v33.5
		c0,0.8,0.3,1.5,0.9,2.1s1.3,0.9,2.1,0.9h3v24.4h-3c-8.4,0-15-2.6-20-7.7s-7.4-11.7-7.4-19.7v-9.9h-2.1c-2.5,0-4.4,0.7-5.7,2.1
		s-1.9,3.2-1.9,5.4v29.7H0V78.1z M180,111c2.4-2.4,5.2-3.7,8.5-3.7s6.2,1.2,8.6,3.6c2.4,2.4,3.6,5.3,3.6,8.6c0,3.3-1.2,6.2-3.5,8.6
		c-2.4,2.4-5.3,3.5-8.6,3.5s-6.2-1.2-8.6-3.6c-2.4-2.4-3.6-5.3-3.6-8.6C176.3,116.2,177.6,113.4,180,111z M206.8,111
		c2.4-2.4,5.2-3.7,8.5-3.7s6.2,1.2,8.6,3.6c2.4,2.4,3.6,5.3,3.6,8.6c0,3.3-1.2,6.2-3.5,8.6c-2.4,2.4-5.3,3.5-8.6,3.5
		s-6.2-1.2-8.6-3.6c-2.4-2.4-3.6-5.3-3.6-8.6C203.1,116.2,204.4,113.4,206.8,111z"/>
	<path id="XMLID_411_" class="st0" d="M267.7,78.1h49v-1c0-7.5-4.5-11.2-13.6-11.2h-28V41.6h29.4c10.1,0,18.7,3.3,25.9,9.8
		c7,6.5,10.6,14.6,10.6,24.4v2.3l0.1,24.4h-73.5V78.1H267.7z M297.8,112.3c2.5-2.5,5.5-3.8,9-3.8s6.5,1.3,9,3.8s3.8,5.5,3.8,9
		s-1.3,6.5-3.8,9s-5.5,3.8-9,3.8s-6.5-1.3-9-3.8s-3.8-5.5-3.8-9C294,117.9,295.3,114.9,297.8,112.3z"/>
	<path id="XMLID_414_" class="st0" d="M348.5,72c0-8.4,3-15.6,8.9-21.6c5.9-5.9,13.1-8.9,21.6-8.9c9,0,16.3,3.1,22,9.2
		c5.6,6.1,8.5,14,8.5,23.7v3.7h6.1v24.4h-6.2c-0.7,8.8-3.9,15.8-9.4,21.2c-5.6,5.4-12.8,8-21.7,8c-4.9,0-9.9-1.1-15-3.4
		c-5.1-2.2-9.1-5.3-11.9-9.1l16.8-16.1c2.8,2.8,6,4.1,9.9,4.1c2,0,3.7-0.5,5.1-1.6s2.1-2.2,2.1-3.3h-6.1c-8.4,0-15.6-3-21.6-8.9
		C351.4,87.6,348.5,80.5,348.5,72z M372.8,72c0,1.7,0.6,3.1,1.8,4.3c1.2,1.2,2.6,1.8,4.3,1.8h6.1V72c0-1.7-0.6-3.1-1.8-4.3
		c-1.2-1.2-2.6-1.8-4.3-1.8c-1.7,0-3.1,0.6-4.3,1.8C373.4,68.9,372.8,70.3,372.8,72z"/>
	<path id="XMLID_417_" class="st0" d="M413,102.5V78.1h53.7v-1c0-7.5-4.5-11.2-13.6-11.2h-34V41.6l37.4-34.1h31.7l-38.6,34.1h4.9
		c10.1,0,18.7,3.3,25.9,9.8c7.2,6.5,10.8,14.7,10.8,24.4v26.7H413z"/>
	<path id="XMLID_419_" class="st0" d="M498.4,72c0-8.4,3-15.6,8.9-21.6c5.9-5.9,13.1-8.9,21.6-8.9c9,0,16.3,3.1,22,9.2
		c5.6,6.1,8.5,14,8.5,23.7v3.7h6.1v24.4h-6.2c-0.7,8.8-3.9,15.8-9.4,21.2c-5.6,5.4-12.8,8-21.7,8c-4.9,0-9.9-1.1-15-3.4
		c-5.1-2.2-9.1-5.3-11.9-9.1l16.8-16.1c2.8,2.8,6,4.1,9.9,4.1c2,0,3.7-0.5,5.1-1.6c1.4-1.1,2.1-2.2,2.1-3.3h-6.1
		c-8.4,0-15.6-3-21.6-8.9C501.4,87.6,498.4,80.5,498.4,72z M522.8,72c0,1.7,0.6,3.1,1.8,4.3c1.2,1.2,2.6,1.8,4.3,1.8h6.1V72
		c0-1.7-0.6-3.1-1.8-4.3c-1.2-1.2-2.6-1.8-4.3-1.8s-3.1,0.6-4.3,1.8C523.4,68.9,522.8,70.3,522.8,72z"/>
	<path id="XMLID_422_" class="st0" d="M563,78.1h3.7c1.2,0,2.2-0.4,3-1.2c0.8-0.8,1.2-1.8,1.2-3V7.4h24.4v66.4
		c0,8.1-2.7,14.9-8.2,20.4s-12.3,8.2-20.4,8.2H563V78.1z"/>
</g>
</svg>
