<svg xmlns="http://www.w3.org/2000/svg" viewBox="0 0 1204 750"><defs><style>.cls-1,.cls-2{fill:none;}.cls-1,.cls-3{stroke:#000;}.cls-1,.cls-2,.cls-3,.cls-4{stroke-miterlimit:10;}.cls-2{stroke:#4109fd;stroke-linecap:round;}.cls-2,.cls-4{stroke-width:3px;}.cls-3{stroke-width:0.5px;}.cls-4{stroke:#353535;}</style></defs><title>test chart</title><g id="Layer_2" data-name="Layer 2"><g id="Layer_1-2" data-name="Layer 1"><line class="cls-1" x1="0.5" y1="749.5" x2="1203.5" y2="749.5"/><line class="cls-1" x1="0.5" y1="749.5" x2="0.5" y2="730.77"/><line class="cls-1" x1="71.26" y1="749.5" x2="71.26" y2="730.77"/><line class="cls-1" x1="142.03" y1="749.5" x2="142.03" y2="730.77"/><line class="cls-1" x1="212.79" y1="749.5" x2="212.79" y2="730.77"/><line class="cls-1" x1="283.56" y1="749.5" x2="283.56" y2="730.77"/><line class="cls-1" x1="354.32" y1="749.5" x2="354.32" y2="730.77"/><line class="cls-1" x1="425.09" y1="749.5" x2="425.09" y2="730.77"/><line class="cls-1" x1="495.85" y1="749.5" x2="495.85" y2="730.77"/><line class="cls-1" x1="566.62" y1="749.5" x2="566.62" y2="730.77"/><line class="cls-1" x1="637.38" y1="749.5" x2="637.38" y2="730.77"/><line class="cls-1" x1="708.15" y1="749.5" x2="708.15" y2="730.77"/><line class="cls-1" x1="778.91" y1="749.5" x2="778.91" y2="730.77"/><line class="cls-1" x1="849.68" y1="749.5" x2="849.68" y2="730.77"/><line class="cls-1" x1="920.44" y1="749.5" x2="920.44" y2="730.77"/><line class="cls-1" x1="991.21" y1="749.5" x2="991.21" y2="730.77"/><line class="cls-1" x1="1061.97" y1="749.5" x2="1061.97" y2="730.77"/><line class="cls-1" x1="1132.74" y1="749.5" x2="1132.74" y2="730.77"/><line class="cls-1" x1="1203.5" y1="749.5" x2="1203.5" y2="730.77"/><line class="cls-1" x1="0.5" y1="749.5" x2="0.5" y2="0.5"/><line class="cls-1" x1="0.5" y1="749.5" x2="30.57" y2="749.5"/><line class="cls-1" x1="0.5" y1="599.7" x2="30.57" y2="599.7"/><line class="cls-1" x1="0.5" y1="449.9" x2="30.57" y2="449.9"/><line class="cls-1" x1="0.5" y1="300.1" x2="30.57" y2="300.1"/><line class="cls-1" x1="0.5" y1="150.3" x2="30.57" y2="150.3"/><line class="cls-1" x1="0.5" y1="0.5" x2="30.57" y2="0.5"/><line class="cls-2" x1="106.65" y1="524.8" x2="35.88" y2="599.7"/><line class="cls-2" x1="177.41" y1="449.9" x2="106.65" y2="524.8"/><line class="cls-2" x1="248.18" y1="375" x2="177.41" y2="449.9"/><line class="cls-2" x1="318.94" y1="150.3" x2="248.18" y2="375"/><line class="cls-2" x1="389.71" y1="449.9" x2="318.94" y2="150.3"/><line class="cls-2" x1="460.47" y1="524.8" x2="389.71" y2="449.9"/><line class="cls-2" x1="531.24" y1="150.3" x2="460.47" y2="524.8"/><line class="cls-2" x1="602" y1="599.7" x2="531.24" y2="150.3"/><line class="cls-2" x1="672.76" y1="599.7" x2="602" y2="599.7"/><line class="cls-2" x1="743.53" y1="449.9" x2="672.76" y2="599.7"/><line class="cls-2" x1="814.29" y1="75.4" x2="743.53" y2="449.9"/><line class="cls-2" x1="885.06" y1="674.6" x2="814.29" y2="75.4"/><line class="cls-2" x1="955.82" y1="599.7" x2="885.06" y2="674.6"/><line class="cls-2" x1="1026.59" y1="375" x2="955.82" y2="599.7"/><line class="cls-2" x1="1097.35" y1="375" x2="1026.59" y2="375"/><line class="cls-2" x1="1168.12" y1="150.3" x2="1097.35" y2="375"/><rect class="cls-3" x="32.88" y="596.7" width="6" height="6"/><rect class="cls-4" x="103.65" y="521.8" width="6" height="6"/><rect class="cls-4" x="174.41" y="446.9" width="6" height="6"/><rect class="cls-4" x="245.18" y="372" width="6" height="6"/><rect class="cls-4" x="315.94" y="147.3" width="6" height="6"/><rect class="cls-4" x="386.71" y="446.9" width="6" height="6"/><rect class="cls-4" x="457.47" y="521.8" width="6" height="6"/><rect class="cls-4" x="528.24" y="147.3" width="6" height="6"/><rect class="cls-4" x="599" y="596.7" width="6" height="6"/><rect class="cls-4" x="669.76" y="596.7" width="6" height="6"/><rect class="cls-4" x="740.53" y="446.9" width="6" height="6"/><rect class="cls-4" x="811.29" y="72.4" width="6" height="6"/><rect class="cls-3" x="882.06" y="671.6" width="6" height="6"/><rect class="cls-4" x="952.82" y="596.7" width="6" height="6"/><rect class="cls-4" x="1023.59" y="372" width="6" height="6"/><rect class="cls-4" x="1094.35" y="372" width="6" height="6"/><rect class="cls-4" x="1165.12" y="147.3" width="6" height="6"/></g></g></svg>